name: University 10
spacing: proportional
bounding-box: 12x12
family: University
font-id: 513
style: sans serif
point-size: 10
average-width: 4.85546875
max-width: 13
x-height: 6
ascent: 8
descent: 2
line-height: 13
encoding: pc-geos
default-char: 0x2e
underline-descent: 1
strikethrough-ascent: 4
converter: monobit v0.44
source-name: UNIVERSI.FNT
source-path: GEOS20/USERDATA/FONT/UNIVERSI.FNT
source-format: pcgeos
history: label -char-from=pc-geos

0x20:
' ':
    -

    shift-up: 10
    right-bearing: 3


0x21:
'!':
    @
    @
    @
    @
    @
    @
    .
    @

    left-bearing: 2
    right-bearing: 1


0x22:
'"':
    @.@
    @.@

    shift-up: 6
    left-bearing: 1
    right-bearing: 1


0x23:
'#':
    ...@.@.
    .@@@@@@
    ..@.@..
    @@@@@@.
    .@.@...

    shift-up: 3
    left-bearing: 1
    right-bearing: 1


0x24:
'$':
    ..@..
    .@@@.
    @.@.@
    @.@..
    .@@..
    ..@@.
    ..@.@
    @.@.@
    .@@@.
    ..@..

    shift-up: -1
    left-bearing: 1
    right-bearing: 1


0x25:
'%':
    .@@@@@@@
    @..@..@.
    @..@.@..
    .@@.@...
    ...@.@@.
    ..@.@..@
    .@..@..@
    .@...@@.

    left-bearing: 1
    right-bearing: 1


0x26:
'&':
    ..@@...
    .@..@..
    .@.@...
    ..@....
    .@.@.@.
    @...@..
    @..@.@.
    .@@...@

    right-bearing: 1


0x27:
''':
    @
    @

    shift-up: 6
    left-bearing: 1
    right-bearing: 1


0x28:
'(':
    ..@
    .@.
    .@.
    @..
    @..
    @..
    @..
    .@.
    .@.
    ..@

    shift-up: -1
    left-bearing: 1
    right-bearing: 2


0x29:
')':
    @..
    .@.
    .@.
    ..@
    ..@
    ..@
    ..@
    .@.
    .@.
    @..

    shift-up: -1
    left-bearing: 1
    right-bearing: 2


0x2a:
'*':
    .@.@.
    ..@..
    @@@@@
    ..@..
    .@.@.

    shift-up: 3
    left-bearing: 1
    right-bearing: 1


0x2b:
'+':
    ..@..
    ..@..
    @@@@@
    ..@..
    ..@..

    shift-up: 1
    left-bearing: 1
    right-bearing: 2


0x2c:
',':
    .@
    .@
    @.

    shift-up: -2
    left-bearing: 1
    right-bearing: 1


0x2d:
'-':
    @@@@

    shift-up: 3
    left-bearing: 1
    right-bearing: 2


0x2e:
'.':
    @

    left-bearing: 1
    right-bearing: 1


0x2f:
'/':
    ...@
    ...@
    ..@.
    ..@.
    .@..
    .@..
    @...
    @...

    left-bearing: 1
    right-bearing: 1


0x30:
'0':
    .@@@.
    @...@
    @...@
    @...@
    @...@
    @...@
    @...@
    .@@@.

    left-bearing: 1
    right-bearing: 1


0x31:
'1':
    .@
    @@
    .@
    .@
    .@
    .@
    .@
    .@

    left-bearing: 2
    right-bearing: 3


0x32:
'2':
    .@@@.
    @...@
    ....@
    ...@.
    ..@..
    .@...
    @....
    @@@@@

    left-bearing: 1
    right-bearing: 1


0x33:
'3':
    @@@@@
    ...@.
    ..@..
    .@@@.
    ....@
    ....@
    @...@
    .@@@.

    left-bearing: 1
    right-bearing: 1


0x34:
'4':
    ....@.
    ...@@.
    ..@.@.
    .@..@.
    @...@.
    @@@@@@
    ....@.
    ....@.

    left-bearing: 1


0x35:
'5':
    @@@@@
    @....
    @....
    @@@@.
    ....@
    ....@
    @...@
    .@@@.

    left-bearing: 1
    right-bearing: 1


0x36:
'6':
    ..@@.
    .@...
    @....
    @@@@.
    @...@
    @...@
    @...@
    .@@@.

    left-bearing: 1
    right-bearing: 1


0x37:
'7':
    @@@@@
    ....@
    ....@
    ...@.
    ...@.
    ..@..
    ..@..
    ..@..

    left-bearing: 1
    right-bearing: 1


0x38:
'8':
    .@@@.
    @...@
    @...@
    .@@@.
    @...@
    @...@
    @...@
    .@@@.

    left-bearing: 1
    right-bearing: 1


0x39:
'9':
    .@@@.
    @...@
    @...@
    @...@
    .@@@@
    ....@
    ...@.
    .@@..

    left-bearing: 1
    right-bearing: 1


0x3a:
':':
    @
    .
    .
    .
    @

    left-bearing: 1
    right-bearing: 1


0x3b:
';':
    .@
    ..
    ..
    ..
    .@
    .@
    @.

    shift-up: -2
    left-bearing: 1
    right-bearing: 1


0x3c:
'<':
    ..@
    .@.
    @..
    .@.
    ..@

    shift-up: 1
    left-bearing: 1
    right-bearing: 1


0x3d:
'=':
    @@@@@
    .....
    @@@@@

    shift-up: 2
    left-bearing: 1
    right-bearing: 1


0x3e:
'>':
    @..
    .@.
    ..@
    .@.
    @..

    shift-up: 1
    left-bearing: 1
    right-bearing: 1


0x3f:
'?':
    .@@@.
    @...@
    ....@
    ...@.
    ..@..
    ..@..
    .....
    ..@..

    left-bearing: 1
    right-bearing: 1


0x40:
'@':
    ..@@@..
    .@...@.
    @.@@@.@
    @.@.@.@
    @.@@@@.
    .@.....
    ..@@...

    left-bearing: 1
    right-bearing: 1


0x41:
'A':
    ..@..
    ..@..
    .@.@.
    .@.@.
    @...@
    @@@@@
    @...@
    @...@

    right-bearing: 1


0x42:
'B':
    @@@@.
    @...@
    @...@
    @@@@.
    @...@
    @...@
    @...@
    @@@@.

    left-bearing: 1
    right-bearing: 1


0x43:
'C':
    .@@@.
    @...@
    @....
    @....
    @....
    @....
    @...@
    .@@@.

    right-bearing: 1


0x44:
'D':
    @@@..
    @..@.
    @...@
    @...@
    @...@
    @...@
    @..@.
    @@@..

    left-bearing: 1
    right-bearing: 1


0x45:
'E':
    @@@@
    @...
    @...
    @@@.
    @...
    @...
    @...
    @@@@

    left-bearing: 1
    right-bearing: 1


0x46:
'F':
    @@@@
    @...
    @...
    @@@.
    @...
    @...
    @...
    @...

    left-bearing: 1
    right-bearing: 1


0x47:
'G':
    .@@@.
    @...@
    @....
    @....
    @..@@
    @...@
    @...@
    .@@@.

    right-bearing: 1


0x48:
'H':
    @...@
    @...@
    @...@
    @@@@@
    @...@
    @...@
    @...@
    @...@

    left-bearing: 1
    right-bearing: 1


0x49:
'I':
    @
    @
    @
    @
    @
    @
    @
    @

    left-bearing: 1
    right-bearing: 2


0x4a:
'J':
    ....@
    ....@
    ....@
    ....@
    ....@
    @...@
    @...@
    .@@@.

    right-bearing: 1


0x4b:
'K':
    @...@
    @..@.
    @.@..
    @@...
    @@...
    @.@..
    @..@.
    @...@

    left-bearing: 1
    right-bearing: 1


0x4c:
'L':
    @...
    @...
    @...
    @...
    @...
    @...
    @...
    @@@@

    left-bearing: 1
    right-bearing: 1


0x4d:
'M':
    @.....@
    @@...@@
    @.@.@.@
    @..@..@
    @.....@
    @.....@
    @.....@
    @.....@

    left-bearing: 1
    right-bearing: 1


0x4e:
'N':
    @...@
    @@..@
    @@..@
    @.@.@
    @.@.@
    @..@@
    @..@@
    @...@

    left-bearing: 1
    right-bearing: 1


0x4f:
'O':
    .@@@.
    @...@
    @...@
    @...@
    @...@
    @...@
    @...@
    .@@@.

    right-bearing: 1


0x50:
'P':
    @@@@.
    @...@
    @...@
    @...@
    @@@@.
    @....
    @....
    @....

    left-bearing: 1
    right-bearing: 1


0x51:
'Q':
    .@@@.
    @...@
    @...@
    @...@
    @...@
    @...@
    @.@.@
    .@@@.
    ....@

    shift-up: -1
    right-bearing: 1


0x52:
'R':
    @@@@.
    @...@
    @...@
    @...@
    @@@@.
    @.@..
    @..@.
    @...@

    left-bearing: 1
    right-bearing: 1


0x53:
'S':
    .@@@.
    @...@
    @....
    .@@@.
    ....@
    ....@
    @...@
    .@@@.

    right-bearing: 1


0x54:
'T':
    @@@@@
    ..@..
    ..@..
    ..@..
    ..@..
    ..@..
    ..@..
    ..@..

    right-bearing: 1


0x55:
'U':
    @...@
    @...@
    @...@
    @...@
    @...@
    @...@
    @...@
    .@@@.

    left-bearing: 1
    right-bearing: 1


0x56:
'V':
    @...@
    @...@
    .@.@.
    .@.@.
    .@.@.
    ..@..
    ..@..
    ..@..

    right-bearing: 1


0x57:
'W':
    @.......@
    @...@...@
    .@..@..@.
    .@.@.@.@.
    .@.@.@.@.
    ..@...@..
    ..@...@..
    ..@...@..

    right-bearing: 1


0x58:
'X':
    @...@
    @...@
    .@.@.
    ..@..
    ..@..
    .@.@.
    @...@
    @...@

    right-bearing: 1


0x59:
'Y':
    @...@
    @...@
    .@.@.
    .@.@.
    ..@..
    ..@..
    ..@..
    ..@..

    right-bearing: 1


0x5a:
'Z':
    @@@@@
    ....@
    ...@.
    ..@..
    ..@..
    .@...
    @....
    @@@@@

    right-bearing: 1


0x5b:
'[':
    @@
    @.
    @.
    @.
    @.
    @.
    @.
    @.
    @.
    @@

    shift-up: -1
    left-bearing: 1
    right-bearing: 2


0x5c:
'\':
    @...
    @...
    .@..
    .@..
    ..@.
    ..@.
    ...@
    ...@

    right-bearing: 1


0x5d:
']':
    @@
    .@
    .@
    .@
    .@
    .@
    .@
    .@
    .@
    @@

    shift-up: -1
    left-bearing: 1
    right-bearing: 2


0x5e:
'^':
    .@.
    @.@

    shift-up: 6
    left-bearing: 1
    right-bearing: 1


0x5f:
'_':
    @@@@@@@



0x60:
'`':
    @.
    .@

    shift-up: 6
    left-bearing: 1
    right-bearing: 1


0x61:
'a':
    .@@.
    @..@
    .@@@
    @..@
    @..@
    .@@@

    right-bearing: 1


0x62:
'b':
    @...
    @...
    @@@.
    @..@
    @..@
    @..@
    @..@
    @@@.

    left-bearing: 1
    right-bearing: 1


0x63:
'c':
    .@@.
    @..@
    @...
    @...
    @..@
    .@@.

    right-bearing: 1


0x64:
'd':
    ...@
    ...@
    .@@@
    @..@
    @..@
    @..@
    @..@
    .@@@

    right-bearing: 1


0x65:
'e':
    .@@.
    @..@
    @@@@
    @...
    @..@
    .@@.

    right-bearing: 1


0x66:
'f':
    ..@@
    .@..
    @@@.
    .@..
    .@..
    .@..
    .@..
    .@..



0x67:
'g':
    .@@@
    @..@
    @..@
    @..@
    @..@
    .@@@
    ...@
    .@@.

    shift-up: -2
    right-bearing: 1


0x68:
'h':
    @...
    @...
    @@@.
    @..@
    @..@
    @..@
    @..@
    @..@

    left-bearing: 1
    right-bearing: 1


0x69:
'i':
    .@
    ..
    @@
    .@
    .@
    .@
    .@
    .@

    right-bearing: 2


0x6a:
'j':
    ..@
    ...
    .@@
    ..@
    ..@
    ..@
    ..@
    ..@
    ..@
    @@.

    shift-up: -2
    right-bearing: 2


0x6b:
'k':
    @...
    @...
    @..@
    @.@.
    @@..
    @@..
    @.@.
    @..@

    left-bearing: 1
    right-bearing: 1


0x6c:
'l':
    @@
    .@
    .@
    .@
    .@
    .@
    .@
    .@

    right-bearing: 2


0x6d:
'm':
    @@@.@@.
    @..@..@
    @..@..@
    @..@..@
    @..@..@
    @..@..@

    left-bearing: 1
    right-bearing: 1


0x6e:
'n':
    @@@.
    @..@
    @..@
    @..@
    @..@
    @..@

    left-bearing: 1
    right-bearing: 1


0x6f:
'o':
    .@@.
    @..@
    @..@
    @..@
    @..@
    .@@.

    right-bearing: 1


0x70:
'p':
    @@@.
    @..@
    @..@
    @..@
    @..@
    @@@.
    @...
    @...

    shift-up: -2
    left-bearing: 1
    right-bearing: 1


0x71:
'q':
    .@@@
    @..@
    @..@
    @..@
    @..@
    .@@@
    ...@
    ...@

    shift-up: -2
    right-bearing: 1


0x72:
'r':
    @.@@
    @@..
    @...
    @...
    @...
    @...

    left-bearing: 1
    right-bearing: 1


0x73:
's':
    .@@.
    @..@
    .@@.
    ...@
    @..@
    .@@.

    right-bearing: 1


0x74:
't':
    .@.
    .@.
    @@@
    .@.
    .@.
    .@.
    .@.
    ..@

    right-bearing: 1


0x75:
'u':
    @..@
    @..@
    @..@
    @..@
    @..@
    .@@@

    left-bearing: 1
    right-bearing: 1


0x76:
'v':
    @...@
    @...@
    .@.@.
    .@.@.
    ..@..
    ..@..

    right-bearing: 1


0x77:
'w':
    @.....@
    @.....@
    .@.@.@.
    .@.@.@.
    ..@.@..
    ..@.@..

    right-bearing: 1


0x78:
'x':
    @...@
    .@.@.
    ..@..
    ..@..
    .@.@.
    @...@

    right-bearing: 1


0x79:
'y':
    @..@
    @..@
    @..@
    @..@
    @..@
    .@@@
    ...@
    .@@.

    shift-up: -2
    left-bearing: 1
    right-bearing: 1


0x7a:
'z':
    @@@@
    ...@
    ..@.
    .@..
    @...
    @@@@

    right-bearing: 1


0x7b:
'{':
    ..@
    .@.
    .@.
    .@.
    .@.
    @..
    .@.
    .@.
    .@.
    .@.
    ..@

    shift-up: -2
    right-bearing: 2


0x7c:
'|':
    @
    @
    @
    @
    @
    @
    @
    @
    @
    @
    @

    shift-up: -2
    left-bearing: 1
    right-bearing: 2


0x7d:
'}':
    @..
    .@.
    .@.
    .@.
    .@.
    ..@
    .@.
    .@.
    .@.
    .@.
    @..

    shift-up: -2
    left-bearing: 1
    right-bearing: 1


0x7e:
'~':
    .@@..@
    @..@@.

    shift-up: 6
    right-bearing: 1


0x80:
'Ä':
    .@.@.
    .....
    ..@..
    ..@..
    .@.@.
    .@.@.
    @...@
    @@@@@
    @...@
    @...@

    right-bearing: 1


0x81:
'Å':
    .@@@.
    @...@
    .@@@.
    ..@..
    .@.@.
    .@.@.
    @...@
    @@@@@
    @...@
    @...@

    right-bearing: 1


0x82:
'Ç':
    .@@@.
    @...@
    @....
    @....
    @....
    @....
    @...@
    .@@@.
    ..@..
    .@...

    shift-up: -2
    right-bearing: 1


0x83:
'É':
    ..@.
    .@..
    @@@@
    @...
    @...
    @@@.
    @...
    @...
    @...
    @@@@

    left-bearing: 1
    right-bearing: 1


0x84:
'Ñ':
    .@@..@
    @..@@.
    .@...@
    .@@..@
    .@@..@
    .@.@.@
    .@.@.@
    .@..@@
    .@..@@
    .@...@

    right-bearing: 1


0x85:
'Ö':
    .@.@.
    .....
    .@@@.
    @...@
    @...@
    @...@
    @...@
    @...@
    @...@
    .@@@.

    right-bearing: 1


0x86:
'Ü':
    .@.@.
    .....
    .....
    @...@
    @...@
    @...@
    @...@
    @...@
    @...@
    .@@@.

    left-bearing: 1
    right-bearing: 1


0x87:
'á':
    ..@.
    .@..
    ....
    .@@.
    @..@
    .@@@
    @..@
    @..@
    .@@@

    right-bearing: 1


0x88:
'à':
    .@..
    ..@.
    ....
    .@@.
    @..@
    .@@@
    @..@
    @..@
    .@@@

    right-bearing: 1


0x89:
'â':
    .@@.
    @..@
    ....
    .@@.
    @..@
    .@@@
    @..@
    @..@
    .@@@

    right-bearing: 1


0x8a:
'ä':
    .@.@
    ....
    .@@.
    @..@
    .@@@
    @..@
    @..@
    .@@@

    right-bearing: 1


0x8b:
'ã':
    .@@.@
    @.@@.
    .....
    .@@..
    @..@.
    .@@@.
    @..@.
    @..@.
    .@@@.

    right-bearing: 1


0x8c:
'å':
    .@@.
    @..@
    @..@
    .@@.
    @..@
    .@@@
    @..@
    @..@
    .@@@

    right-bearing: 1


0x8d:
'ç':
    .@@.
    @..@
    @...
    @...
    @..@
    .@@.
    ..@.
    .@..

    shift-up: -2
    right-bearing: 1


0x8e:
'é':
    ..@.
    .@..
    ....
    .@@.
    @..@
    @@@@
    @...
    @..@
    .@@.

    right-bearing: 1


0x8f:
'è':
    .@..
    ..@.
    ....
    .@@.
    @..@
    @@@@
    @...
    @..@
    .@@.

    right-bearing: 1


0x90:
'ê':
    .@@.
    @..@
    ....
    .@@.
    @..@
    @@@@
    @...
    @..@
    .@@.

    right-bearing: 1


0x91:
'ë':
    @..@
    ....
    .@@.
    @..@
    @@@@
    @...
    @..@
    .@@.

    right-bearing: 1


0x92:
'í':
    ..@
    .@.
    ...
    @@.
    .@.
    .@.
    .@.
    .@.
    .@.

    right-bearing: 1


0x93:
'ì':
    @.
    .@
    ..
    @@
    .@
    .@
    .@
    .@
    .@

    left-bearing: 1
    right-bearing: 1


0x94:
'î':
    .@@.
    @..@
    ....
    .@@.
    ..@.
    ..@.
    ..@.
    ..@.
    ..@.

    right-bearing: 1


0x95:
'ï':
    @.@
    ...
    @@.
    .@.
    .@.
    .@.
    .@.
    .@.

    right-bearing: 1


0x96:
'ñ':
    .@@.@
    @.@@.
    .....
    .@@@.
    .@..@
    .@..@
    .@..@
    .@..@
    .@..@

    right-bearing: 1


0x97:
'ó':
    ..@.
    .@..
    ....
    .@@.
    @..@
    @..@
    @..@
    @..@
    .@@.

    right-bearing: 1


0x98:
'ò':
    .@..
    ..@.
    ....
    .@@.
    @..@
    @..@
    @..@
    @..@
    .@@.

    right-bearing: 1


0x99:
'ô':
    .@@.
    @..@
    ....
    .@@.
    @..@
    @..@
    @..@
    @..@
    .@@.

    right-bearing: 1


0x9a:
'ö':
    @..@
    ....
    .@@.
    @..@
    @..@
    @..@
    @..@
    .@@.

    right-bearing: 1


0x9b:
'õ':
    .@@.@
    @.@@.
    .....
    ..@@.
    .@..@
    .@..@
    .@..@
    .@..@
    ..@@.

    right-bearing: 1


0x9c:
'ú':
    ..@.
    .@..
    ....
    @..@
    @..@
    @..@
    @..@
    @..@
    .@@@

    left-bearing: 1
    right-bearing: 1


0x9d:
'ù':
    .@..
    ..@.
    ....
    @..@
    @..@
    @..@
    @..@
    @..@
    .@@@

    left-bearing: 1
    right-bearing: 1


0x9e:
'û':
    .@@.
    @..@
    ....
    @..@
    @..@
    @..@
    @..@
    @..@
    .@@@

    left-bearing: 1
    right-bearing: 1


0x9f:
'ü':
    @..@
    ....
    @..@
    @..@
    @..@
    @..@
    @..@
    .@@@

    left-bearing: 1
    right-bearing: 1


0xa0:
'†':
    .@.
    @@@
    .@.
    .@.
    .@.

    shift-up: 4
    left-bearing: 1
    right-bearing: 1


0xa1:
'°':
    .@@.
    @..@
    @..@
    .@@.

    shift-up: 4
    right-bearing: 1


0xa2:
'¢':
    ..@..
    .@@@.
    @.@.@
    @.@..
    @.@..
    @.@.@
    .@@@.
    ..@..

    shift-up: -1
    right-bearing: 1


0xa3:
'£':
    ..@@..
    .@..@.
    .@....
    @@@...
    .@....
    .@....
    .@...@
    @@@@@.

    right-bearing: 1


0xa4:
'§':
    .@@@.
    @...@
    @....
    .@@@.
    @...@
    .@@@.
    ....@
    @...@
    .@@@.

    right-bearing: 1


0xa5:
'•':
    .@@@.
    @@@@@
    @@@@@
    @@@@@
    .@@@.

    shift-up: 1
    right-bearing: 1


0xa6:
'¶':
    .@@@@
    @.@.@
    @.@.@
    @.@.@
    .@@@@
    ..@.@
    ..@.@
    ..@.@

    right-bearing: 1


0xa7:
'ß':
    ..@@@.
    .@...@
    .@...@
    .@.@@.
    .@...@
    .@...@
    .@...@
    @@.@@.

    right-bearing: 1


0xa8:
'®':
    ..@@@@..
    .@....@.
    @.@@@..@
    @.@..@.@
    @.@@@..@
    @.@..@.@
    .@....@.
    ..@@@@..

    left-bearing: 1
    right-bearing: 1


0xa9:
'©':
    ..@@@@..
    .@....@.
    @..@@..@
    @.@....@
    @.@....@
    @..@@..@
    .@....@.
    ..@@@@..

    left-bearing: 1
    right-bearing: 1


0xaa:
'™':
    @@@@...@
    .@.@@.@@
    .@.@.@.@
    .@.@...@

    shift-up: 4
    right-bearing: 1


0xab:
'´':
    .@
    @.

    shift-up: 6
    right-bearing: 1


0xac:
'¨':
    @.@

    shift-up: 7
    right-bearing: 1


0xad:
'≠':
    ...@.
    @@@@@
    ..@..
    @@@@@
    .@...

    shift-up: 1
    left-bearing: 1
    right-bearing: 1


0xae:
'Æ':
    ...@@@@@
    ...@@...
    ..@.@...
    ..@.@@@.
    .@@@@...
    .@..@...
    @...@...
    @...@@@@

    right-bearing: 1


0xaf:
'Ø':
    ..@@@.@
    .@...@.
    .@..@@.
    .@.@.@.
    .@.@.@.
    .@@..@.
    .@...@.
    @.@@@..

    right-bearing: 1


0xb0:
'∞':
    .@@....@@.
    @..@..@..@
    @...@@...@
    @..@..@..@
    .@@....@@.

    shift-up: 1
    right-bearing: 1


0xb1:
'±':
    ..@..
    ..@..
    @@@@@
    ..@..
    ..@..
    @@@@@

    left-bearing: 1
    right-bearing: 1


0xb2:
'≤':
    ...@.
    ..@..
    .@...
    ..@..
    ...@.
    @@@@@

    left-bearing: 1
    right-bearing: 1


0xb3:
'≥':
    .@...
    ..@..
    ...@.
    ..@..
    .@...
    @@@@@

    left-bearing: 1
    right-bearing: 1


0xb4:
'¥':
    @...@
    .@.@.
    @@@@@
    ..@..
    @@@@@
    ..@..
    ..@..
    ..@..

    left-bearing: 1
    right-bearing: 1


0xb5:
'µ':
    .@..@.
    .@..@.
    .@..@.
    .@..@.
    .@..@.
    .@@@.@
    @.....

    shift-up: -1
    right-bearing: 1


0xb6:
'δ':
    @@..
    ..@.
    ..@@
    .@.@
    @..@
    @..@
    .@@.

    right-bearing: 1


0xb7:
'Σ':
    @@@@@.
    .@...@
    ..@...
    ...@..
    ...@..
    ..@...
    .@...@
    @@@@@.

    right-bearing: 1


0xb8:
'Π':
    @@@@@@
    .@..@.
    .@..@.
    .@..@.
    .@..@.
    .@..@.
    .@..@.
    .@..@.

    right-bearing: 1


0xb9:
'π':
    ......@
    .@@@@@.
    @.@..@.
    ..@..@.
    ..@..@.
    ..@..@.
    .@..@..

    right-bearing: 1


0xba:
'∫':
    ..@
    .@.
    .@.
    .@.
    .@.
    .@.
    .@.
    .@.
    .@.
    .@.
    .@.
    @..

    shift-up: -2
    left-bearing: 1
    right-bearing: 1


0xbb:
'ª':
    .@@@
    @..@
    @..@
    .@@@
    ....
    @@@@

    shift-up: 2
    right-bearing: 1


0xbc:
'º':
    .@@.
    @..@
    @..@
    .@@.
    ....
    @@@@

    shift-up: 2
    right-bearing: 1


0xbd:
'Ω':
    ..@@..
    .@..@.
    @....@
    @....@
    @....@
    .@..@.
    .@..@.
    @@..@@

    left-bearing: 1
    right-bearing: 1


0xbe:
'æ':
    .@@.@@.
    @..@..@
    .@@@@@@
    @..@...
    @..@..@
    .@@.@@.

    right-bearing: 1


0xbf:
'ø':
    ..@@.@
    .@..@.
    .@.@@.
    .@@.@.
    .@..@.
    @.@@..

    right-bearing: 1


0xc0:
'¿':
    ..@..
    .....
    ..@..
    ..@..
    .@...
    @...@
    @...@
    .@@@.

    right-bearing: 2


0xc1:
'¡':
    @
    .
    @
    @
    @
    @
    @
    @

    left-bearing: 2
    right-bearing: 1


0xc2:
'¬':
    @@@@@
    ....@
    ....@

    shift-up: 1
    left-bearing: 1
    right-bearing: 1


0xc3:
'√':
    ......@@
    ......@.
    .....@..
    .....@..
    @@..@...
    ..@.@...
    ...@....
    ...@....

    right-bearing: 1


0xc4:
'ƒ':
    ..@
    .@.
    .@.
    .@.
    .@.
    @@@
    .@.
    .@.
    .@.
    .@.
    .@.
    @..

    shift-up: -2
    left-bearing: 1
    right-bearing: 1


0xc5:
'≈':
    .@@..@
    @..@@.
    .@@..@
    @..@@.

    shift-up: 2
    left-bearing: 1


0xc6:
'Δ':
    ..@..
    ..@..
    .@.@.
    .@.@.
    @...@
    @@@@@

    left-bearing: 1
    right-bearing: 1


0xc7:
'«':
    ..@..@
    .@..@.
    @..@..
    .@..@.
    ..@..@

    right-bearing: 1


0xc8:
'»':
    @..@..
    .@..@.
    ..@..@
    .@..@.
    @..@..

    left-bearing: 1


0xc9:
'…':
    @..@..@

    left-bearing: 1
    right-bearing: 1


0xca:
' ':
    -

    shift-up: 10
    right-bearing: 3


0xcb:
'À':
    ..@..
    ...@.
    ..@..
    ..@..
    .@.@.
    .@.@.
    @...@
    @@@@@
    @...@
    @...@

    right-bearing: 1


0xcc:
'Ã':
    .@@..@
    @..@@.
    ..@...
    ..@...
    .@.@..
    .@.@..
    @...@.
    @@@@@.
    @...@.
    @...@.

    right-bearing: 1


0xcd:
'Õ':
    .@@..@
    @..@@.
    ..@@@.
    .@...@
    .@...@
    .@...@
    .@...@
    .@...@
    .@...@
    ..@@@.

    right-bearing: 1


0xce:
'Œ':
    .@@@.@@@
    @...@...
    @...@...
    @...@@@.
    @...@...
    @...@...
    @...@...
    .@@@.@@@

    right-bearing: 1


0xcf:
'œ':
    .@@.@@.
    @..@..@
    @..@@@@
    @..@...
    @..@..@
    .@@.@@.

    right-bearing: 1


0xd0:
'–':
    @@@@@

    shift-up: 3
    right-bearing: 1


0xd1:
'—':
    @@@@@@@@

    shift-up: 3
    right-bearing: 1


0xd2:
'“':
    .@..@
    @..@.
    @@.@@

    shift-up: 5
    left-bearing: 1
    right-bearing: 1


0xd3:
'”':
    @@.@@
    .@..@
    @..@.

    shift-up: 5
    left-bearing: 1
    right-bearing: 1


0xd4:
'‘':
    .@
    @.
    @@

    shift-up: 5
    left-bearing: 1
    right-bearing: 1


0xd5:
'’':
    @@
    .@
    @.

    shift-up: 5
    left-bearing: 1
    right-bearing: 1


0xd6:
'÷':
    ..@..
    .....
    @@@@@
    .....
    ..@..

    shift-up: 1
    left-bearing: 1
    right-bearing: 2


0xd7:
'◇':
    ...@...
    ..@.@..
    .@...@.
    @.....@
    .@...@.
    ..@.@..
    ...@...

    left-bearing: 1
    right-bearing: 1


0xd8:
'ÿ':
    @..@
    ....
    @..@
    @..@
    @..@
    @..@
    @..@
    .@@@
    ...@
    .@@.

    shift-up: -2
    left-bearing: 1
    right-bearing: 1


0xd9:
'Ÿ':
    .@.@.
    .....
    @...@
    @...@
    .@.@.
    .@.@.
    ..@..
    ..@..
    ..@..
    ..@..

    right-bearing: 1


0xda:
'⁄':
    ......@
    .....@.
    ....@..
    ...@...
    ..@....
    .@.....
    @......

    shift-up: -1


0xdb:
'¤':
    @@@@@
    @...@
    @...@
    @...@
    @@@@@

    shift-up: 1
    right-bearing: 1


0xdc:
'‹':
    ..@
    .@.
    @..
    .@.
    ..@

    left-bearing: 2
    right-bearing: 2


0xdd:
'›':
    @..
    .@.
    ..@
    .@.
    @..

    left-bearing: 3
    right-bearing: 1


0xde:
'ý':
    ..@.
    .@..
    ....
    @..@
    @..@
    @..@
    @..@
    @..@
    .@@@
    ...@
    .@@.

    shift-up: -2
    left-bearing: 1
    right-bearing: 1


0xdf:
'Ý':
    ...@.
    ..@..
    @...@
    @...@
    .@.@.
    .@.@.
    ..@..
    ..@..
    ..@..
    ..@..

    right-bearing: 1


0xe0:
'‡':
    .@.
    @@@
    .@.
    @@@
    .@.
    .@.

    shift-up: 3
    left-bearing: 1
    right-bearing: 1


0xe1:
'·':
    @

    shift-up: 5
    left-bearing: 1
    right-bearing: 1


0xe2:
'‚':
    @@
    .@
    @.

    shift-up: -2
    left-bearing: 1
    right-bearing: 1


0xe3:
'„':
    @@.@@
    .@..@
    @..@.

    shift-up: -2
    left-bearing: 1
    right-bearing: 1


0xe4:
'‰':
    .@@@@@@@...
    @..@..@....
    @..@.@.....
    .@@.@......
    ...@.@@.@@.
    ..@.@..@..@
    .@..@..@..@
    .@...@@.@@.

    left-bearing: 1
    right-bearing: 1


0xe5:
'Â':
    ..@..
    .@.@.
    ..@..
    ..@..
    .@.@.
    .@.@.
    @...@
    @@@@@
    @...@
    @...@

    right-bearing: 1


0xe6:
'Ê':
    .@..
    @.@.
    @@@@
    @...
    @...
    @@@.
    @...
    @...
    @...
    @@@@

    left-bearing: 1
    right-bearing: 1


0xe7:
'Á':
    ..@..
    .@...
    ..@..
    ..@..
    .@.@.
    .@.@.
    @...@
    @@@@@
    @...@
    @...@

    right-bearing: 1


0xe8:
'Ë':
    @.@.
    ....
    @@@@
    @...
    @...
    @@@.
    @...
    @...
    @...
    @@@@

    left-bearing: 1
    right-bearing: 1


0xe9:
'È':
    .@..
    ..@.
    @@@@
    @...
    @...
    @@@.
    @...
    @...
    @...
    @@@@

    left-bearing: 1
    right-bearing: 1


0xea:
'Í':
    .@
    @.
    @.
    @.
    @.
    @.
    @.
    @.
    @.
    @.

    left-bearing: 1
    right-bearing: 1


0xeb:
'Î':
    .@.
    @.@
    .@.
    .@.
    .@.
    .@.
    .@.
    .@.
    .@.
    .@.

    right-bearing: 1


0xec:
'Ï':
    @.@
    ...
    .@.
    .@.
    .@.
    .@.
    .@.
    .@.
    .@.
    .@.

    right-bearing: 1


0xed:
'Ì':
    @.
    .@
    .@
    .@
    .@
    .@
    .@
    .@
    .@
    .@

    right-bearing: 2


0xee:
'Ó':
    ...@.
    ..@..
    .@@@.
    @...@
    @...@
    @...@
    @...@
    @...@
    @...@
    .@@@.

    left-bearing: 1
    right-bearing: 1


0xef:
'Ô':
    ..@..
    .@.@.
    .@@@.
    @...@
    @...@
    @...@
    @...@
    @...@
    @...@
    .@@@.

    left-bearing: 1
    right-bearing: 1


0xf1:
'Ò':
    .@...
    ..@..
    .@@@.
    @...@
    @...@
    @...@
    @...@
    @...@
    @...@
    .@@@.

    left-bearing: 1
    right-bearing: 1


0xf2:
'Ú':
    ...@.
    ..@..
    @...@
    @...@
    @...@
    @...@
    @...@
    @...@
    @...@
    .@@@.

    left-bearing: 1
    right-bearing: 1


0xf3:
'Û':
    ..@..
    .@.@.
    @...@
    @...@
    @...@
    @...@
    @...@
    @...@
    @...@
    .@@@.

    left-bearing: 1
    right-bearing: 1


0xf4:
'Ù':
    .@...
    ..@..
    @...@
    @...@
    @...@
    @...@
    @...@
    @...@
    @...@
    .@@@.

    left-bearing: 1
    right-bearing: 1


0xf5:
'ı':
    @@
    .@
    .@
    .@
    .@
    .@

    right-bearing: 2


0xf6:
'ˆ':
    .@.
    @.@

    shift-up: 7
    left-bearing: 1
    right-bearing: 1


0xf7:
'˜':
    .@@.@
    @.@@.

    shift-up: 7
    left-bearing: 1
    right-bearing: 1


0xf8:
'¯':
    @@@

    shift-up: 7
    left-bearing: 1
    right-bearing: 1


0xf9:
'˘':
    @..@
    .@@.

    shift-up: 6
    left-bearing: 1
    right-bearing: 1


0xfa:
'˙':
    @

    shift-up: 7
    left-bearing: 2
    right-bearing: 2


0xfb:
'˚':
    .@.
    @.@
    .@.

    shift-up: 6
    left-bearing: 1
    right-bearing: 1


0xfc:
'¸':
    .@
    @.

    shift-up: -2
    left-bearing: 1
    right-bearing: 1


0xfd:
'˝':
    .@..@
    @..@.

    shift-up: 7
    left-bearing: 1


0xfe:
'˛':
    @.
    .@

    shift-up: -2
    left-bearing: 1
    right-bearing: 1


0xff:
    -

    shift-up: 10
    right-bearing: 5


